<?xml version="1.0" standalone="no"?>
<!DOCTYPE svg PUBLIC "-//W3C//DTD SVG 1.1//EN" "http://www.w3.org/Graphics/SVG/1.1/DTD/svg11.dtd" >
<svg xmlns="http://www.w3.org/2000/svg">
<metadata></metadata>
<defs>
<font id="clearance_captionregular" horiz-adv-x="1228" >
<font-face units-per-em="2048" ascent="1638" descent="-410" />
<missing-glyph horiz-adv-x="245" />
<glyph horiz-adv-x="0" />
<glyph horiz-adv-x="682" />
<glyph unicode=" "  horiz-adv-x="245" />
<glyph unicode="&#x09;" horiz-adv-x="245" />
<glyph unicode="&#xa0;" horiz-adv-x="245" />
<glyph unicode="!" horiz-adv-x="204" d="M20 313q0 -4 2 -7t11 -5.5t27 5.5q27 10 59 32t46 39q8 10 13 18.5t6 12.5l1 4v1023q0 4 -2 7t-11 5.5t-27 -5.5q-27 -10 -59 -32t-46 -39q-8 -10 -13 -18.5t-6 -12.5l-1 -3v-967v-57zM25 -20v186q0 12 18 33q14 15 44.5 36t54.5 30q17 7 25 5t10.5 -5t2.5 -6v-54v-10 v-54v-68q0 -11 -18 -32q-14 -15 -44.5 -36.5t-54.5 -30.5q-17 -7 -25 -5t-10.5 5t-2.5 6z" />
<glyph unicode="&#x22;" horiz-adv-x="440" d="M20 1453q0 19 39 6q23 -8 55.5 -38.5t49.5 -53.5q8 -10 12 -22t4 -19v-6l5 -242q-1 -10 0 -25q5 -77 30 -120q15 -26 13 -38.5t-12 -11t-14 1.5q-2 0 -13 6q-20 10 -41.5 24.5t-49.5 41t-47.5 66.5t-23.5 87zM223 1109v343q0 21 38 7q23 -9 55.5 -41t48.5 -54 q8 -10 11.5 -22t3.5 -18v-7v-242q-1 -10 0 -25q2 -75 28 -121q9 -16 11.5 -27t0 -15.5t-8 -6t-10 -1t-7.5 1.5q-2 0 -14 7q-20 10 -40.5 25t-48.5 41.5t-46.5 67t-21.5 87.5z" />
<glyph unicode="$" horiz-adv-x="432" d="M23 877q-7 42 4 81.5t32 65.5t43.5 46t38.5 30l16 9q1 6 19 13v205q0 12 16 34q12 16 38.5 38.5t48.5 32.5q15 8 22 5.5t9 -5.5t2 -7v-286q27 -9 46.5 -36t27 -61t10.5 -57.5t3 -41.5q0 -5 0.5 -25t0.5 -33.5t-1 -31t-4.5 -30t-9.5 -19.5q-14 -16 -51 -31.5t-53 -15.5 q-12 0 -14 11.5t0 23.5q2 71 -5 124.5t-17.5 79t-21 40.5t-18.5 18l-8 2q-2 -1 -5.5 -3t-12.5 -11.5t-13.5 -24t-8 -39.5t3.5 -59q8 -50 52 -108.5t99 -121t76 -106.5q28 -56 25 -109t-18 -89.5t-34 -50.5t-49 -31v-219q0 -13 -16 -35q-12 -16 -38.5 -38t-48.5 -32 q-15 -8 -22 -5.5t-9 5.5t-2 6v266q-9 -2 -23 -4q-34 12 -57.5 41t-33.5 60t-14 68t-3.5 57.5t1.5 35.5q2 20 37 41t71 34q22 8 28.5 0.5t3.5 -21.5q-8 -48 -4.5 -85t15 -63.5t23.5 -43.5t22 -25l9 -8q28 32 23.5 90.5t-28.5 102.5q-8 15 -43 55.5t-70 81.5t-68 99.5 t-42 109.5z" />
<glyph unicode="'" horiz-adv-x="192" d="M0.5 1054.5q-4.5 10.5 12.5 40.5q24 45 26 121v19v2v11v38v73q0 11 18 32q14 15 44.5 36.5t54.5 30.5q37 14 37 -6v-54v-20v-46v-7v-35v-7q-2 -29 -5 -42q-8 -38 -27.5 -72t-39.5 -55t-43.5 -38t-34 -22.5t-17.5 -8.5t-14 -2t-11.5 11.5z" />
<glyph unicode="(" horiz-adv-x="346" d="M20.5 770q-4.5 -141 13.5 -278.5t40.5 -223.5t56.5 -168.5t47 -106t25 -42.5q17 -27 116 -33q16 -1 22.5 4t4.5 10l-1 5q-77 146 -121.5 307.5t-53.5 304t-1.5 281t30 248t44.5 193.5t39 129l18 46q5 14 -19.5 29.5t-52.5 24.5l-27 9q-11 2 -20 -8t-13 -21l-4 -10 q-69 -188 -104 -373.5t-39.5 -326.5z" />
<glyph unicode=")" horiz-adv-x="346" d="M0 -68l1 5q77 146 121.5 307.5t53.5 304t1.5 281t-30 248t-44.5 193.5t-39 129l-18 46q-5 14 19.5 29.5t52.5 24.5l27 9q11 2 20 -8t13 -21l4 -10q69 -188 104 -373.5t39.5 -326.5t-13.5 -278.5t-40.5 -223.5t-56.5 -168.5t-47 -106t-25 -42.5q-17 -27 -116 -33 q-16 -1 -22.5 4t-4.5 10z" />
<glyph unicode="," horiz-adv-x="233" d="M33 -57q-28 -52 3 -52q6 0 11 2l17 8.5t34 22.5t43 38t39.5 55t27.5 72q4 19 6 42v7v34v8v46q0 3 -2.5 6t-10.5 5t-25 -5q-24 -9 -54 -30t-44 -36q-8 -9 -12.5 -17.5t-5.5 -12.5v-3v-37q1 -13 0 -32q-2 -74 -27 -121z" />
<glyph unicode="-" horiz-adv-x="466" d="M20.5 580q2.5 -8 5.5 -10.5t7 -2.5h226v1h76q13 0 35 18q1 1 3 2.5t3 2.5q46 42 66 93q15 37 -7 37h-58h-1h-243q-13 0 -35 -18q-1 -1 -3 -2.5t-3 -2.5q-17 -16 -37 -43t-29 -50q-8 -17 -5.5 -25z" />
<glyph unicode="." horiz-adv-x="194" d="M20 1q0 -3 2.5 -6t10.5 -5t25 5q24 9 54.5 30t44.5 36q8 9 12.5 17.5t4.5 11.5l1 4v68v53q0 3 -2.5 6.5t-10.5 5.5t-25 -5q-24 -9 -54 -30t-44 -37q-8 -9 -12.5 -17t-5.5 -12l-1 -3v-122z" />
<glyph unicode=":" horiz-adv-x="204" d="M20 749v232q1 11 19 32q14 16 44 37t54 30q17 7 25 5t10.5 -5.5t2.5 -6.5v-53v-56v-12v-42v-68q0 -12 -18 -33q-14 -15 -44.5 -36t-54.5 -30q-17 -7 -25 -5t-10.5 5t-2.5 6zM29 250v232q0 11 18 32q14 15 44.5 36.5t54.5 30.5q37 14 37 -6v-54v-56v-12v-42v-68 q0 -11 -18 -32q-14 -15 -44.5 -36.5t-54.5 -30.5q-37 -14 -37 6z" />
<glyph unicode=";" horiz-adv-x="233" d="M20.5 -97.5q-4.5 10.5 12.5 40.5q25 47 27 121v19v2v11v37v74q0 11 18 32q14 16 44 37t54 30q17 7 25 5t10.5 -5t2.5 -6v-54v-20v-46v-8v-34v-7q-2 -23 -6 -42q-8 -38 -27.5 -72t-39.5 -55t-43 -38t-34 -22.5l-17 -8.5q-7 -3 -14.5 -2t-12 11.5zM60 519v231q0 12 18 33 q14 15 44 36t54 30q17 7 25 5t10.5 -5t2.5 -6v-54v-56v-11v-42v-68q0 -12 -18 -33q-14 -15 -44.5 -36t-54.5 -30q-37 -14 -37 6z" />
<glyph unicode="?" horiz-adv-x="444" d="M20 510q0 -4 2 -7t10.5 -5.5t24.5 5.5q24 10 54.5 32t43.5 39q8 10 12.5 18.5t4.5 11.5v4v587q11 -20 27.5 -54.5t44.5 -131.5t28 -184q1 -123 -38.5 -228t-102.5 -164q-1 -1 -3.5 -3t-3.5 -3t-3.5 -3t-3.5 -3q-9 -9 -12 -13q-14 -17 -16 -29v-125q0 -3 2 -6t9.5 -5.5 t23.5 4.5q22 9 50 30t41 37q13 17 16 30v7v54v10v12q30 26 59 59t62 83t53 116t20 136q0 187 -57.5 342t-150.5 264q-1 1 -3 3.5t-4 4.5q-25 23 -88 -15q-31 -18 -54 -39t-30 -31t-9 -15l-9 -22v-746v-57zM82 -24v145q0 11 18 32q14 16 44 37t54 30q5 2 19 5q10 -1 10 -11 v-54v-10v-54v-27q0 -12 -18 -33q-14 -15 -44 -36t-54 -30q-5 -2 -19 -5q-10 1 -10 11z" />
<glyph unicode="A" horiz-adv-x="571" d="M21 13l153 1297q2 13 19 33q12 14 48.5 36.5t58.5 30.5q17 5 23 5q14 0 18 -16l8 -44l201 -1196q1 -8 1 -15q0 -27 -12 -45q-13 -19 -43.5 -47t-56.5 -42q-20 -11 -31 -11t-13 10l-44 263l-3 -3q-10 -8 -18.5 -12.5t-12.5 -4.5l-4 -1h-139l-18 -153q0 -11 -19 -33 q-13 -16 -40 -35.5t-47 -26.5q-9 -3 -15 -3h-5q-6 2 -8 6t-1 7zM192 400h138l-81 481z" />
<glyph unicode="B" horiz-adv-x="524" d="M20 12v57v1224q0 15 20 38q14 17 46.5 39t58.5 31q17 6 26 7h9q54 0 105 -35q20 -14 43 -34.5t56 -62.5t58.5 -91.5t43.5 -123t18 -154.5q0 -17 -2 -55q0 -2 -0.5 -6t-0.5 -6t-1 -6t-1 -6q-1 -4 -1 -12.5t-1 -12.5l-3 -21q0 -4 -1 -10.5t-2 -9.5q-36 -203 -162 -342 q49 -2 85.5 -37.5t36.5 -86.5q0 -68 -68 -132q-75 -71 -187.5 -116t-156.5 -48h-3h-4q-12 0 -12 12zM184 123q100 9 106 63q3 29 -6.5 51t-25.5 33.5t-33 18.5t-29 9l-12 1v-176zM184 403q50 36 86 95q22 37 39 83q42 107 42 243q0 41 -1 63q0 3 -0.5 8.5t-0.5 8.5 q-4 58 -22 112t-41.5 89t-47 62t-38.5 39l-16 12v-815z" />
<glyph unicode="C" horiz-adv-x="575" d="M0 609q1 119 26 229t59 186.5t80 144.5t80 104.5t69 66.5v1l3 2q3 3 9 7t8 6h1l2 2q18 13 35 23t25 13l8 4q6 3 15 6q10 4 30 9q11 3 20 3q7 0 12 -2q10 -4 10 -49v-603q0 -13 -18 -34q-14 -16 -44.5 -38t-54.5 -31q-17 -7 -25 -5t-10.5 5t-2.5 6v56v539l-12 -15 q-52 -68 -87.5 -155.5t-50 -174.5t-19 -147.5t-4.5 -116.5q1 -102 19 -186.5t49 -144.5t60 -98.5t66 -74.5q56 42 68 50q42 32 62 32q8 0 12 -5q6 -6 6 -14q0 -18 -28 -44l-197 -155q-14 -11 -30 -11q-22 0 -47 25q-106 107 -156 249q-48 137 -48 320v15z" />
<glyph unicode="D" horiz-adv-x="546" d="M20 12v57v1236q1 13 20 35q14 17 46 39t59 32q14 5 23 5q6 0 10 -2q7 -2 20 -7.5t49.5 -27t70 -49.5t74 -78t69 -109.5t47.5 -147.5q18 -84 18 -178v-10q-2 -132 -42.5 -257.5t-97.5 -215t-124 -163.5t-118.5 -113t-83.5 -53q-13 -6 -21 -6q-3 1 -5 1q-9 2 -11.5 5 t-2.5 7zM185 200q7 7 17.5 20.5t39 62t51 103.5t43.5 144.5t25 186.5q1 18 1 36q0 73 -14 139q-16 83 -42.5 135t-54 91t-47.5 56l-19 17v-991z" />
<glyph unicode="E" horiz-adv-x="462" d="M20 21v58v1217q0 12 20 34q35 41 89 71q14 8 33 8h75h186h5.5t8 -2.5t7.5 -6t1 -11t-7 -18.5q-16 -26 -50.5 -54.5t-57.5 -40.5q-11 -6 -23.5 -8.5t-19.5 -2.5h-7h-94v-734h142h57q22 0 7 -37q-10 -24 -32.5 -53t-39.5 -43q-10 -8 -18.5 -12.5t-11.5 -5.5h-4h-100v-246 h47h142h48q4 0 7.5 -0.5t10.5 -3.5q5 -2 5 -7t-8 -22q-16 -23 -51 -48.5t-57 -35.5q-11 -5 -23.5 -7t-19.5 -2h-7h-41h-6h-109h-84q-8 0 -13 3q-7 3 -7 10z" />
<glyph unicode="F" horiz-adv-x="540" d="M20 411q0 20 23.5 55.5t46.5 56.5v752q0 25 19 47q36 42 88 71q14 8 34 8h246h20q23 0 23 -16q0 -10 -8 -22q-16 -26 -50 -54.5t-57 -40.5q-11 -6 -23.5 -8.5t-19.5 -2.5h-7h-101v-710h116h57q12 0 12 -15q0 -21 -27 -60.5t-49 -57.5q-10 -8 -20 -12.5t-15 -5.5h-5h-69 v-272q0 -17 -3 -24.5t-16 -22.5q-14 -17 -46.5 -39.5t-58.5 -32.5q-14 -5 -24 -5q-16 0 -16 12v58l-1 326h-57q-12 0 -12 15z" />
<glyph unicode="G" horiz-adv-x="559" d="M20 594q0 107 18 204.5t50 173t68.5 138t80.5 111.5t78 80.5t69 57.5q82 58 124 58q8 0 14 -2q16 -8 16 -49v-596q0 -23 -18 -45q-14 -16 -44.5 -38t-54.5 -31q-12 -5 -22 -5q-15 0 -15 12v55v563q-15 -14 -32.5 -36t-50 -77.5t-57.5 -121t-44 -169t-19 -217.5 q0 -322 202 -533v305h-68h-58q-11 0 -11 13q0 20 27 58t49 55q10 8 18.5 12t11.5 4l4 1h169q13 0 13 -15v-387q0 -27 -24 -45q-17 -13 -54 -36q-94 -58 -138 -80q-27 -12 -35 -12t-17 5t-14 9l-5 5q-231 245 -231 575z" />
<glyph unicode="H" horiz-adv-x="571" d="M41 12v57v1236q0 13 19 35q14 17 46 39t59 32q14 6 22 6q3 -1 5 -1q9 -2 11 -5t2 -7v-57v-824h161v782q0 13 19 35q14 17 46 39t59 32q14 6 22 6q3 -1 5 -1q9 -2 11 -5t2 -7v-57v-1236q0 -16 -20 -35q-55 -53 -104 -71q-14 -6 -22 -6q-3 1 -5 1q-9 2 -11 5t-2 7v57v322 q-15 -17 -33 -17h-128v-263q0 -21 -19 -37q-68 -55 -105 -69q-14 -6 -22 -6q-3 1 -5 1q-9 2 -11 5t-2 7z" />
<glyph unicode="I" horiz-adv-x="204" d="M20 12q0 -12 16 -12q23 0 66.5 27t62.5 49q8 10 13 18.5t6 12.5l1 4v23v1213v57q0 12 -16 12q-23 0 -66.5 -27t-62.5 -49q-8 -10 -13 -18.5t-6 -12.5l-1 -4v-1236v-57z" />
<glyph unicode="J" horiz-adv-x="430" d="M21 366v-10q0 -111 41 -212q44 -107 75 -132q15 -12 32 -12h2q34 0 84 33q24 15 69 52q82 67 86 223v1029v57q0 12 -15 12q-22 0 -63.5 -27t-58.5 -49q-9 -12 -13.5 -22t-4.5 -14v-5v-1149q0 -7 -2 -7l-2 2q-94 136 -94 335q3 113 29 207q3 11 9.5 28.5t7.5 21.5 q3 9 3 16t-2 9l-1 2q-17 18 -47 -7t-51 -59l-21 -34q-31 -61 -47 -140.5t-16 -147.5z" />
<glyph unicode="K" horiz-adv-x="550" d="M20 12v57v1228q0 20 20 43q14 17 46 39t59 32q14 5 24 5q16 0 16 -12v-57v-973q176 253 176 692q0 71 -7 162q-5 52 -7 60q-3 15 17 42q13 18 43 43.5t55 36.5q17 8 27 8q3 0 5 -1q29 -9 36 -173q1 -18 1 -80q0 -86 -9 -174t-33.5 -206t-81 -233.5t-138.5 -203.5 l196 -251q1 -1 2.5 -3.5t3.5 -9.5t-3 -12q-12 -17 -40 -37t-55 -29q-12 -4 -22 -4q-5 0 -9 1.5t-6 3.5t-3.5 4.5t-2.5 3.5t-33 45.5t-67.5 94t-44.5 61.5v-96q0 -20 -20 -43q-14 -17 -46 -39t-59 -32q-14 -5 -24 -5q-16 0 -16 12z" />
<glyph unicode="L" horiz-adv-x="413" d="M20 17v3v1v7v50v1230q1 12 20 34q15 17 47 39.5t58 31.5q17 6 26 6q14 0 14 -12v-51v-1223h186q4 0 7.5 -0.5t10.5 -3.5q5 -2 5 -7t-8 -22q-16 -22 -50.5 -47.5t-57.5 -35.5q-11 -5 -23.5 -7t-19.5 -2h-7h-190q-8 0 -12.5 3t-5.5 6z" />
<glyph unicode="M" horiz-adv-x="630" d="M21 12v57v1236q0 13 17 35q13 16 41.5 38.5t51.5 32.5q13 6 22 6q10 0 13 -9l157 -755q104 635 135 679q13 20 40 38t42.5 25.5t22.5 9.5l12 6q11 5 22 5q14 0 14 -12v-57v-1232q0 -17 -17 -39q-12 -16 -41.5 -38.5t-52.5 -32.5q-11 -5 -21 -5q-14 0 -14 12v57l20 800 q-95 -447 -105 -489q-2 -10 -6 -18.5t-7.5 -13.5t-11.5 -11.5t-12 -9t-17.5 -10t-19.5 -11.5q-21 -12 -30 -12q-6 0 -9.5 3t-4.5 6v3l-107 561l11 -733v-23q0 -13 -17 -35q-13 -16 -41.5 -38.5t-51.5 -32.5q-11 -5 -22 -5q-13 0 -13 12z" />
<glyph unicode="N" horiz-adv-x="546" d="M20 12v57v1228q0 21 18 43q13 17 42.5 39t53.5 32q33 13 36 -5l208 -858v749q0 22 17 43q13 17 42.5 39t53.5 32q12 6 20 6q2 -1 4 -1q8 -2 10 -5t2 -7v-57v-1232q0 -18 -17 -39q-13 -17 -42.5 -39t-53.5 -32q-31 -12 -38 6l-206 829v-725q0 -17 -18 -39 q-14 -17 -42.5 -39t-52.5 -32q-12 -6 -20 -6q-2 1 -4 1q-8 2 -10.5 5.5t-2.5 6.5z" />
<glyph unicode="O" horiz-adv-x="569" d="M22 684q5 132 26.5 247.5t45 183t54.5 124.5t43.5 73.5t23.5 28.5q15 16 46 37.5t57 30.5q13 5 22 5q7 0 12 -3q7 -4 20.5 -17.5t33.5 -42t40.5 -66.5t40.5 -95t35 -122q14 -66 22 -155q5 -58 5 -119q0 -33 -1 -67q-5 -132 -25.5 -247.5t-46.5 -185.5t-51.5 -121 t-42.5 -72l-17 -21q-4 -4 -6 -7q-15 -16 -46 -37.5t-57 -30.5q-15 -5 -24 -5q-7 0 -11 3q-12 6 -33.5 30.5t-53.5 80.5t-58 130t-42 190q-13 89 -13 189q0 30 1 61zM172 704q1 -120 18 -221.5t43.5 -165t44.5 -96t36 -53.5q83 189 83 522v16q-1 120 -17.5 222t-42.5 166.5 t-44 97.5t-35 54q-86 -188 -86 -527v-15z" />
<glyph unicode="P" horiz-adv-x="524" d="M20 12v56v1220q0 19 20 42q14 16 44 38.5t56 35.5q28 13 46 13q34 0 99 -45q20 -14 43 -34.5t56 -62.5t58.5 -91.5t43.5 -123t18 -154.5q0 -16 -2 -54q0 -2 -0.5 -6.5t-0.5 -6.5t-1 -6t-1 -6q-1 -4 -1 -12t-1 -12q-1 -3 -2 -10.5t-1 -11.5t-1 -10.5t-2 -9.5 q-43 -244 -218 -397l-5 -5q-38 -32 -84 -60v-181q0 -20 -19 -42q-15 -17 -47 -39.5t-58 -31.5q-14 -5 -24 -5q-16 0 -16 12zM184 403q50 36 86 95q23 38 39 82q42 107 42 244q0 40 -1 62q0 3 -0.5 8.5t-0.5 8.5q-4 58 -22 112t-41.5 89t-47 62t-38.5 39l-16 12v-814z" />
<glyph unicode="Q" horiz-adv-x="589" d="M20 622q0 20 2 62q5 132 26 246.5t45 183.5t53 124t44 74.5t25 28.5q17 15 49.5 37t53.5 31q17 6 26 6q4 0 6 -1q11 -6 31 -28.5t50 -74.5t55.5 -119.5t44 -174t18.5 -226.5q0 -42 -1 -64q-8 -204 -81 -428l86 -135q2 -2 5 -7.5t6 -18.5q2 -6 2 -12.5t-2 -13.5 q-9 -47 -49 -92q-12 -14 -23 -18q-7 -3 -11 -3q-2 0 -3 1q-4 1 -6 4l-30 50l-50 85q-16 -48 -27 -59q-4 -4 -6 -7q-15 -16 -46 -37.5t-57 -30.5t-35 -2q-11 6 -31 28t-50.5 74t-56.5 118.5t-44.5 172.5t-18.5 226zM172 717q0 -123 17 -227t43.5 -169t45.5 -98.5t36 -54.5 q20 50 21 53l-85 141l-5 9q-10 16 -10 39q0 16 13.5 53.5t31.5 60.5q25 32 36 11l28 -46l38 -69q15 117 15 273q0 124 -16.5 228.5t-42.5 170t-44.5 99.5t-35.5 55q-86 -190 -86 -529z" />
<glyph unicode="R" horiz-adv-x="524" d="M20 12v57v1229q0 19 20 38q15 15 47.5 38t57.5 35q18 8 35 8q50 0 106 -39q21 -15 45 -37.5t58 -69.5t59 -102t42 -139q14 -71 14 -148v-27q-3 -98 -25.5 -180.5t-61 -142.5t-72 -97.5t-76.5 -73.5l198 -264q1 -1 2.5 -3.5t3.5 -10t-3 -12.5q-12 -17 -40.5 -37t-55.5 -29 q-8 -3 -14 -4q-4 -1 -8 -1h-3q-4 0 -7.5 2.5t-5 4t-3.5 4.5l-2 3q-36 48 -146 202v-106q0 -12 -19 -34q-14 -16 -46.5 -38.5t-59.5 -32.5q-16 -6 -26 -6q-14 0 -14 13zM185 404q89 65 133 199q35 107 34 237q0 33 -2 67q-4 59 -22.5 112.5t-42 89t-46.5 62.5t-39 39l-15 12 v-818z" />
<glyph unicode="S" horiz-adv-x="557" d="M28 944q0 73 37 147t96 132.5t127.5 104t135.5 70.5q23 9 51 16h3l2 1h2h4h4q0 -1 2 -1q1 0 2.5 -0.5t2.5 -0.5q2 0 4 -3q10 -9 7 -38q0 -1 0.5 -3.5t0.5 -3.5v-545q-1 -12 -21 -34q-53 -56 -92 -69q-14 -5 -25 -5q-17 0 -17 11v56v515q0 2 -18.5 -7.5t-45 -31 t-53.5 -51.5t-45.5 -78.5t-18.5 -103.5q3 -57 34 -123.5t75.5 -128t89 -121.5t82.5 -122t50 -110q14 -59 14 -104v-6q-5 -127 -58 -175q-15 -19 -82 -75l-20 -16t-20.5 -16.5t-17 -12t-20.5 -10t-18 -2.5q-19 0 -60.5 26t-77.5 66q-43 48 -69 114t-26 128q0 95 11 124l3 9 q3 8 8 13q7 5 45 23q30 14 45 20q25 10 32 10q10 0 7 -17q0 -2 -0.5 -5t-1.5 -5q0 -1 -0.5 -2.5t-0.5 -2.5q-1 -5 -3 -17q0 -1 -0.5 -2.5t-0.5 -2.5v-3v-4q-3 -23 -3 -49q0 -42 4.5 -75.5t18.5 -76.5t47.5 -82.5t83.5 -72.5h3q26 0 26 113q0 51 -14 108q-14 58 -70 141 t-112.5 153t-102.5 157t-46 156z" />
<glyph unicode="T" horiz-adv-x="561" d="M28 1296q16 25 50.5 54t57.5 41q11 6 23.5 8.5t19.5 2.5l7 -1h164h188h5.5t8.5 -2q5 -1 7 -5q1 -2 1 -7v-5q-1 -8 -7 -18q-16 -25 -50.5 -54t-57.5 -41q-11 -6 -23.5 -8.5t-19.5 -2.5l-7 1h-34v-1150q0 -12 -19 -34q-15 -17 -47 -39t-58 -31q-16 -6 -26 -6q-14 0 -14 13 v56v1191h-154h-5.5t-7.5 2q-6 1 -8 5q-1 2 -1 7q0 11 7 23z" />
<glyph unicode="U" horiz-adv-x="532" d="M20 262v1039q1 12 20 34q15 17 47 39.5t58 31.5q14 6 22 6h5q9 -2 11 -5.5t2 -7.5v-57v-1036q3 -29 8.5 -54t17.5 -50t27.5 -42.5t40.5 -27t56 -6.5q10 36 13 85q1 16 1.5 31t0.5 48v73.5t-0.5 124.5t-0.5 183.5t-0.5 268t-0.5 361.5q0 12 19 34q15 17 47 39.5t58 31.5 q14 6 22 6h5q9 -2 11 -5.5t2 -7.5v-57v-1045q0 -27 -6 -52.5t-15 -45.5t-22.5 -40t-26 -33.5t-27 -26.5t-23.5 -20t-19 -14l-10 -7q-7 -7 -15 -12q-67 -47 -130 -47q-46 0 -89 25q-8 4 -12 7q-39 27 -62.5 78.5t-28.5 86t-6 66.5z" />
<glyph unicode="V" horiz-adv-x="571" d="M21 1295v2l2 10l1 2q3 8 10 19q2 4 6 8q3 3 10 11t11 12q27 27 51 44q5 3 15 7q32 13 35 -3v-1l1 -2v-3q0 -1 1 -3q0 -1 0.5 -3.5t0.5 -4.5q0 -9 1 -13q2 -10 2 -13v-2q0 -1 0.5 -3t0.5 -3v-5l1 -3l90 -943l135 888q0 1 2 5l1 3q3 8 10 19q3 6 5 8q3 3 10 11t11 12 q21 21 26 25q1 1 4 3l5 5l12 9q2 2 4 3q25 17 44 20h3h3q9 0 12.5 -5t2.5 -11l-1 -5l-1 -8l-213 -1240l-5 -36q-1 -12 -17 -33l-2 -2q-3 -4 -13 -14q-37 -35 -79 -54q-1 0 -3.5 -1t-3.5 -2q-12 -5 -23 -5q-10 0 -14 8v4l-7 52l-145 1205l-1 6z" />
<glyph unicode="W" horiz-adv-x="624" d="M20 12v57v1236q1 13 18 35q13 16 41.5 38.5t51.5 32.5q12 6 19 6q2 -1 4 -1q8 -2 10 -5t2 -7v-57l-9 -783q52 224 78 333q2 9 6 16t7 11.5t11.5 10t11.5 7.5t16.5 9.5t18.5 9.5q18 10 29 10t13 -5l1 -5l92 -422l4 745l1 23q0 12 18 34q14 16 43 37.5t52 30.5q35 14 35 -7 l-1 -57l-21 -1213l-1 -23q0 -12 -18 -34q-15 -18 -43.5 -39.5t-51.5 -28.5q-24 -7 -24 9l-2 4q-2 3 -4 8.5t-1 10.5l-138 611q-99 -538 -128 -576q-20 -27 -75 -52q-14 -10 -30 -17q-12 -6 -20 -6q-2 1 -4 1q-8 2 -10 5.5t-2 6.5z" />
<glyph unicode="X" horiz-adv-x="604" d="M31 1317q10 18 37.5 45.5t51.5 44.5q31 22 38 -5l11 -44l119 -489l140 452q11 34 31 51q15 13 45 27t51 18q6 1 10 1q7 0 11 -2q7 -3 7 -7l-1 -1v-6l-16 -55l-218 -680l128 -492l3 -10q6 -25 -7 -51q-10 -20 -34.5 -49.5t-47.5 -45.5q-35 -24 -40 -3l-15 55l-79 307 l-77 -298q-2 -12 -22 -30q-14 -13 -43.5 -29t-51.5 -20q-7 -2 -12 -1q-4 0 -8 1q-6 3 -7.5 7t-0.5 7l15 56l137 533l-160 652q-5 18 -5 28q0 12 10 33z" />
<glyph unicode="Y" horiz-adv-x="622" d="M22 1289q-2 6 -2 13q0 18 17 38q14 16 44.5 38.5t54.5 32.5q13 6 21 6q2 0 5 -1q8 -2 10 -5t2 -7l130 -739l140 619q7 43 21 56q59 55 99 71q13 6 21 6q2 0 4 -1q8 -2 10.5 -5.5t2.5 -6.5l-240 -1039v-254q0 -13 -18 -35q-13 -16 -43.5 -38.5t-55.5 -32.5q-13 -6 -21 -6 q-2 0 -4 1q-9 2 -11 5t-2 7v57v294z" />
<glyph unicode="Z" horiz-adv-x="440" d="M1 31v6v4q1 5 61 296t122 591t69 333h-39h-188q-3 0 -5.5 0.5t-7.5 2.5t-7.5 5.5t-1.5 11.5t7 18q16 26 48.5 54.5t54.5 39.5q11 6 24.5 8.5t21.5 2.5h8h42h188q13 0 16 -4q2 -2 3.5 -5t1.5 -7.5v-8t-1 -10t-1.5 -10t-2 -12t-2.5 -11.5l-247 -1195h45h140h48 q4 0 7.5 -0.5t10.5 -3.5q5 -2 5 -7t-8 -22q-18 -25 -42.5 -49.5t-42.5 -33.5q-6 -3 -10.5 -4.5l-7.5 -2.5t-8.5 -1.5t-8 -0.5h-11.5h-13h-167h-84q-17 0 -17 15z" />
<glyph unicode="a" />
<glyph unicode="b" />
<glyph unicode="c" />
<glyph unicode="d" />
<glyph unicode="e" />
<glyph unicode="f" />
<glyph unicode="g" />
<glyph unicode="h" />
<glyph unicode="i" />
<glyph unicode="j" />
<glyph unicode="k" />
<glyph unicode="l" />
<glyph unicode="m" />
<glyph unicode="n" />
<glyph unicode="o" />
<glyph unicode="p" />
<glyph unicode="q" />
<glyph unicode="r" />
<glyph unicode="s" />
<glyph unicode="t" />
<glyph unicode="u" />
<glyph unicode="v" />
<glyph unicode="w" />
<glyph unicode="x" />
<glyph unicode="y" />
<glyph unicode="z" />
<glyph unicode="&#xad;" horiz-adv-x="466" d="M20.5 580q2.5 -8 5.5 -10.5t7 -2.5h226v1h76q13 0 35 18q1 1 3 2.5t3 2.5q46 42 66 93q15 37 -7 37h-58h-1h-243q-13 0 -35 -18q-1 -1 -3 -2.5t-3 -2.5q-17 -16 -37 -43t-29 -50q-8 -17 -5.5 -25z" />
<glyph unicode="&#x2000;" horiz-adv-x="754" />
<glyph unicode="&#x2001;" horiz-adv-x="1509" />
<glyph unicode="&#x2002;" horiz-adv-x="754" />
<glyph unicode="&#x2003;" horiz-adv-x="1509" />
<glyph unicode="&#x2004;" horiz-adv-x="503" />
<glyph unicode="&#x2005;" horiz-adv-x="377" />
<glyph unicode="&#x2006;" horiz-adv-x="251" />
<glyph unicode="&#x2007;" horiz-adv-x="251" />
<glyph unicode="&#x2008;" horiz-adv-x="188" />
<glyph unicode="&#x2009;" horiz-adv-x="301" />
<glyph unicode="&#x200a;" horiz-adv-x="83" />
<glyph unicode="&#x2010;" horiz-adv-x="466" d="M20.5 580q2.5 -8 5.5 -10.5t7 -2.5h226v1h76q13 0 35 18q1 1 3 2.5t3 2.5q46 42 66 93q15 37 -7 37h-58h-1h-243q-13 0 -35 -18q-1 -1 -3 -2.5t-3 -2.5q-17 -16 -37 -43t-29 -50q-8 -17 -5.5 -25z" />
<glyph unicode="&#x2011;" horiz-adv-x="466" d="M20.5 580q2.5 -8 5.5 -10.5t7 -2.5h226v1h76q13 0 35 18q1 1 3 2.5t3 2.5q46 42 66 93q15 37 -7 37h-58h-1h-243q-13 0 -35 -18q-1 -1 -3 -2.5t-3 -2.5q-17 -16 -37 -43t-29 -50q-8 -17 -5.5 -25z" />
<glyph unicode="&#x2012;" horiz-adv-x="466" d="M20.5 580q2.5 -8 5.5 -10.5t7 -2.5h226v1h76q13 0 35 18q1 1 3 2.5t3 2.5q46 42 66 93q15 37 -7 37h-58h-1h-243q-13 0 -35 -18q-1 -1 -3 -2.5t-3 -2.5q-17 -16 -37 -43t-29 -50q-8 -17 -5.5 -25z" />
<glyph unicode="&#x2013;" horiz-adv-x="466" d="M20.5 580q2.5 -8 5.5 -10.5t7 -2.5h226v1h76q13 0 35 18q1 1 3 2.5t3 2.5q46 42 66 93q15 37 -7 37h-58h-1h-243q-13 0 -35 -18q-1 -1 -3 -2.5t-3 -2.5q-17 -16 -37 -43t-29 -50q-8 -17 -5.5 -25z" />
<glyph unicode="&#x2014;" horiz-adv-x="1030" d="M40.5 580q-2.5 8 5.5 25q9 23 29 50t37 43q1 1 3.5 2.5t3.5 2.5q10 8 18.5 12.5t12.5 4.5l4 1h243h59q2 0 4 -1l5 1h454h59q21 0 6 -37q-9 -22 -28.5 -49.5t-36.5 -43.5q-1 -1 -3 -2.5t-3 -2.5q-10 -8 -19 -12.5t-13 -5.5h-4h-75v-1h-438q-2 0 -4 1h-4h-76v-1h-227 q-4 0 -7 2.5t-5.5 10.5z" />
<glyph unicode="&#x201c;" horiz-adv-x="458" d="M20 1479q0 21 40 7q24 -9 57.5 -40.5t52.5 -56.5q8 -11 12 -23t4 -19l1 -7l5 -253q0 -10 1 -26q5 -80 31 -125q10 -17 12.5 -28t0 -16t-8 -6.5t-10.5 -1t-8 1.5q-2 0 -14 6q-21 10 -43 25.5t-51.5 42.5t-49.5 69t-24 91zM232 1120v359q0 21 40 6q24 -9 57.5 -42t50.5 -57 q8 -11 12 -23t4 -19v-7v-253q-1 -10 0 -26q2 -78 29 -126q15 -27 13 -40.5t-12.5 -11.5t-14.5 2q-3 0 -15 6q-21 11 -42.5 26.5t-50.5 43.5t-48.5 70.5t-22.5 91.5z" />
<glyph unicode="&#x201d;" horiz-adv-x="458" d="M21 891q2 -13 12.5 -11t14.5 2q2 0 14 6q21 11 43 26.5t51 43.5t48.5 70.5t22.5 91.5l-1 358q0 22 -39 7q-24 -9 -57.5 -42t-50.5 -57q-8 -11 -12 -23t-5 -19v-7v-254q1 -9 0 -25q-3 -81 -28 -127q-15 -27 -13 -40zM221 895q2 -13 12.5 -11.5t14.5 1.5q3 0 15 6 q21 10 43.5 25.5t51.5 43t49 69.5t24 91l7 358q0 21 -39 7q-24 -9 -57.5 -40.5t-52.5 -55.5q-8 -11 -12.5 -23t-4.5 -19l-1 -7l-5 -253q1 -10 0 -26q-5 -81 -31 -126q-16 -27 -14 -40z" />
<glyph unicode="&#x202f;" horiz-adv-x="301" />
<glyph unicode="&#x205f;" horiz-adv-x="377" />
<glyph unicode="&#x25fc;" horiz-adv-x="1024" d="M0 0z" />
</font>
</defs>
</svg>
