<?xml version="1.0" standalone="no"?>
<!DOCTYPE svg PUBLIC "-//W3C//DTD SVG 1.1//EN" "http://www.w3.org/Graphics/SVG/1.1/DTD/svg11.dtd" >
<svg xmlns="http://www.w3.org/2000/svg">
<metadata></metadata>
<defs>
<font id="clearance_displayregular" horiz-adv-x="1228" >
<font-face units-per-em="2048" ascent="1638" descent="-410" />
<missing-glyph horiz-adv-x="307" />
<glyph horiz-adv-x="0" />
<glyph horiz-adv-x="682" />
<glyph unicode=" "  horiz-adv-x="307" />
<glyph unicode="&#x09;" horiz-adv-x="307" />
<glyph unicode="&#xa0;" horiz-adv-x="307" />
<glyph unicode="!" horiz-adv-x="180" d="M24 901q-7 -197 1 -380v-7q0 -5 0.5 -14.5t0.5 -15.5q4 -44 13 -59q11 -18 132 -84q10 -5 11 -6q15 -7 18 8l-3 45q0 2 -0.5 5.5t-0.5 4.5v11v3l-1 2v4q-15 238 -6 477q4 135 21 302q4 40 19 148q1 5 2 16t2 16l1 2q2 18 2 26q0 22 -3 28q-6 12 -58 51.5t-65 46.5 q-4 2 -8 2q-13 0 -17 -14q-1 -5 -6 -31t-7 -33q-35 -190 -48 -554zM39 292q0 21 40 8q27 -8 61.5 -29t50.5 -36q9 -9 14.5 -17t6.5 -12l1 -3l11 -188q0 -20 -40 -7q-27 9 -61.5 29t-50.5 35q-9 9 -14.5 17t-5.5 12l-1 4l-5 68q-3 51 -3 55l-1 10q-3 50 -3 54z" />
<glyph unicode="&#x22;" horiz-adv-x="458" d="M20 1508q0 21 40 7q24 -9 57.5 -40.5t52.5 -56.5q8 -11 12.5 -23t4.5 -19v-6l5 -254q0 -10 1 -26q5 -80 31 -125q10 -17 12.5 -28t0 -16t-8 -6.5t-10.5 -1t-8 1.5q-2 0 -14 6q-21 10 -43.5 25.5t-51.5 43t-49 69.5t-24 91zM232 1149v359q0 21 40 6q24 -9 57.5 -42 t50.5 -57q8 -11 12 -23t4 -19v-7v-253q-1 -10 0 -26q2 -78 29 -126q15 -27 13 -40.5t-12.5 -11.5t-14.5 2q-1 0 -15 7q-21 11 -42.5 26.5t-50.5 43.5t-48.5 70t-22.5 91z" />
<glyph unicode="$" horiz-adv-x="432" d="M23 885q-7 42 4 81.5t32.5 65.5t43.5 46t38 30l16 9q1 6 19 13v205q0 12 16 34q12 16 38.5 38.5t48.5 32.5q15 8 22 5.5t9 -5.5t2 -7v-286q27 -9 46.5 -36t27 -61t10.5 -57.5t3 -41.5q0 -5 0.5 -25t0.5 -33.5t-1 -31t-4.5 -30t-9.5 -19.5q-14 -16 -51 -31.5t-53 -15.5 q-12 0 -14 11.5t0 23.5q2 71 -5 124.5t-17.5 79t-21 40.5t-18.5 18l-8 2q-2 -1 -5.5 -3t-12.5 -11.5t-13.5 -23.5t-8 -39t3.5 -59q8 -50 52 -108.5t99 -121.5t76 -107q28 -56 25 -109t-18 -89.5t-34 -50.5q-13 -9 -49 -30v-220q0 -12 -16 -34q-12 -16 -38.5 -38.5 t-48.5 -32.5q-15 -8 -22 -5.5t-9 5.5t-2 6v266q-9 -2 -23 -4q-34 12 -57.5 41t-33.5 60t-14 68t-3.5 57.5t1.5 35.5q2 20 37 41t71 34q22 8 28.5 0.5t3.5 -21.5q-8 -48 -4.5 -85t15 -63.5t23.5 -43.5t22 -25l9 -8q28 32 23.5 90.5t-28.5 102.5q-8 15 -43 55.5t-70 81.5 t-68 99.5t-42 109.5z" />
<glyph unicode="&#x26;" horiz-adv-x="471" d="M21 784q-7 87 37 150t103 102v299q0 12 18 34q14 17 43.5 39t53.5 32q16 8 24.5 5.5t10.5 -5.5t2 -7v-343q36 -3 59 -28q39 -43 45 -117t-18 -119q-19 -42 -75 -69t-78 -22q-4 1 -7 3t-4 5.5t-1.5 6.5t0.5 7.5t1.5 7.5t2.5 7.5t2 6.5q37 129 -44 197q-1 1 -4 3l-4 -10 q-2 -6 -5 -16t-8.5 -39.5t-5.5 -56.5t9.5 -60.5t29.5 -57.5t44 -38.5t42.5 -18.5t33.5 -6.5t20.5 -7.5t1.5 -16q-12 -31 -53 -55.5t-92 -32.5q-4 -1 -11 -1q-39 -85 -10 -129q14 -21 34.5 -32t33.5 -11h13q3 4 7 10t10.5 27.5t-0.5 41.5q-3 1 -6.5 3t-10 11.5t0.5 23.5 q7 20 42 41t60 28q16 8 40.5 6.5t35.5 -24.5q14 -25 2.5 -73.5t-43.5 -80.5q-36 -34 -90 -61v-252q0 -12 -18 -34q-14 -17 -43.5 -39t-53.5 -32q-37 -15 -37 6v310q-41 2 -73 19q-50 28 -58 85.5t20 111.5t74 78q-92 56 -103 187z" />
<glyph unicode="'" horiz-adv-x="227" d="M0.5 932.5q-2.5 -11.5 0.5 -16t8.5 -6t10.5 -1t8 1.5l14 7q21 11 42.5 26.5t50.5 43.5t48.5 70t22.5 91v359q0 21 -40 6q-24 -9 -57.5 -42t-50.5 -57q-8 -11 -12 -23t-4 -19v-7v-253q1 -10 0 -26q-2 -78 -29 -126q-10 -17 -12.5 -28.5z" />
<glyph unicode="(" horiz-adv-x="346" d="M0.5 803q-4.5 -141 13.5 -278.5t40.5 -223.5t56.5 -168.5t47 -106t25 -42.5q17 -27 115 -33q16 -1 22.5 4t5.5 10l-1 5q-77 146 -121.5 307.5t-53.5 304t-1.5 281t30 248t44.5 193.5t39 130l18 45q5 14 -19.5 29.5t-52.5 24.5l-27 9q-11 2 -20 -8t-13 -20l-4 -11 q-69 -188 -104 -373.5t-39.5 -326.5z" />
<glyph unicode=")" horiz-adv-x="366" d="M20 -35l1 5q77 146 121.5 307.5t53.5 304t1.5 281t-30 248t-44.5 193.5t-39 130l-18 45q-5 14 20 29.5t52 24.5l28 9q11 2 20 -8t12 -20l4 -11q69 -188 104 -373.5t39.5 -326.5t-13.5 -278.5t-40.5 -223.5t-56.5 -168.5t-47 -106t-25 -42.5q-17 -27 -115 -33 q-16 -1 -22.5 4t-5.5 10z" />
<glyph unicode="," horiz-adv-x="233" d="M33 -79q-28 -52 3 -52q6 0 11 2q7 3 17 8.5t34 22.5t43.5 37.5t39 54.5t27.5 72q4 20 6 42v7v35v8v46q0 3 -2.5 6t-10.5 5t-25 -5q-24 -9 -54 -30t-44 -37q-8 -9 -12.5 -17t-5.5 -12v-3v-38q1 -13 0 -32q-2 -73 -27 -120z" />
<glyph unicode="-" horiz-adv-x="466" d="M20.5 580q2.5 -8 5.5 -10.5t7 -2.5h226v1h76q13 0 35 18q1 1 3 2.5t3 2.5q46 42 66 93q15 37 -7 37h-58h-1h-243q-13 0 -35 -18q-1 -1 -3 -2.5t-3 -2.5q-17 -16 -37 -43t-29 -50q-8 -17 -5.5 -25z" />
<glyph unicode="." horiz-adv-x="194" d="M0 -12q0 -3 2.5 -6t10.5 -5t25 5q24 9 54 30t44 37q8 9 12.5 17t5.5 12v3v68v54q0 20 -37 6q-24 -9 -54.5 -30.5t-44.5 -36.5q-8 -9 -12.5 -17t-5.5 -11v-4v-122z" />
<glyph unicode="/" horiz-adv-x="499" d="M1 138q-4 15 5 73q2 13 6 37q0 1 1 3.5t1 4.5q41 223 98 459q87 358 194 656q2 5 8.5 23t12 33t7.5 19q7 16 19 14q3 -1 7 -5q8 -10 41.5 -66.5t35.5 -72.5q1 -6 -5 -34q-3 -13 -8 -31l-1 -3q-2 -5 -6.5 -17.5t-6.5 -19.5q-22 -65 -55 -175q-47 -155 -97 -360 q-71 -291 -119 -575q0 -2 -1 -4v-2v-2l-1 -3q-1 -2 -1.5 -6.5t-0.5 -6.5q-1 -2 -1 -6.5t-1 -6.5l-9 -54q-6 -18 -18 -6l-9 9q-90 102 -96 125z" />
<glyph unicode=":" horiz-adv-x="204" d="M20 492v232q1 11 19 32q14 16 44 37t54 30q17 7 25 5t10.5 -5t2.5 -6v-54v-56v-12v-42v-68q0 -11 -18 -32q-14 -15 -44.5 -36.5t-54.5 -30.5q-17 -7 -25 -5t-10.5 5t-2.5 6zM29 -6v231q0 12 18 33q14 15 44.5 36t54.5 30q37 14 37 -6v-54v-56v-12v-42v-67q0 -12 -18 -33 q-14 -15 -44.5 -36t-54.5 -30q-37 -14 -37 6z" />
<glyph unicode=";" horiz-adv-x="233" d="M20.5 -193.5q-4.5 10.5 12.5 40.5q25 47 27 121v18v3v11v37v73q0 12 18 33q14 15 44 36t54 30q17 7 25 5t10.5 -5t2.5 -6v-53v-20v-46v-8v-35v-6q-2 -24 -6 -43q-8 -38 -27.5 -72t-39 -54.5t-43.5 -37.5t-34 -22.5t-17 -8.5t-14.5 -2t-12 11.5zM60 423v231q0 12 18 33 q14 15 44 36t54 30q17 7 25 5t10.5 -5t2.5 -6v-54v-56v-12v-42v-67q0 -12 -18 -33q-14 -15 -44.5 -36t-54.5 -30q-37 -14 -37 6z" />
<glyph unicode="?" horiz-adv-x="444" d="M20 514q0 -4 2 -7t10.5 -5.5t24.5 5.5q24 10 54.5 32t43.5 39q8 10 12.5 18.5t4.5 11.5v4v587q11 -20 27.5 -54.5t44.5 -131.5t28 -184q1 -123 -38.5 -228t-102.5 -164q-1 -1 -3.5 -3t-3.5 -3t-3.5 -3t-3.5 -3q-9 -9 -12 -13q-14 -17 -16 -29v-125q0 -20 35 -6 q23 9 50.5 29.5t40.5 36.5q13 17 16 30v7v54v10v12q30 26 59 59t62 83t53 116t20 136q0 187 -57.5 342t-150.5 264v1l-7 7q-25 23 -88 -15q-31 -18 -54 -39t-30 -31t-9 -15l-9 -22v-746v-57zM82 -20v145q0 12 18 33q14 15 44 36t54 30q5 2 19 5q10 -1 10 -11v-54v-10v-54 v-27q0 -11 -18 -32q-14 -16 -44 -37t-54 -30q-5 -2 -19 -5q-10 1 -10 11z" />
<glyph unicode="A" horiz-adv-x="575" d="M21 405q0 392 73 741q44 183 74 255q13 30 57 30q49 0 131 -36q6 -2 27 -13q43 -24 43 -58q0 -27 18 -480q0 -2 0.5 -6.5t0.5 -6.5v-14q0 -2 0.5 -5.5t0.5 -5.5q1 -14 1 -39q14 -293 49 -517l1 -7q0 -1 0.5 -4t0.5 -4q1 -2 1.5 -6t0.5 -6q10 -54 28.5 -117t25.5 -79 q2 -6 2 -8q0 -13 -16 -13q-10 0 -43 9q-21 5 -48.5 20.5t-40.5 27.5q-25 21 -32 55l-2 12q-10 50 -23 139q-72 -22 -149 -74q-4 -3 -9 -3q-11 0 -18 13q-4 7 -8 17l19 -189q2 -21 1 -23l-2 -4q-3 -4 -11 -4q-4 0 -9 1l-9 3q-42 16 -102 51q-14 9 -18 37q-8 42 -14 193 q-1 35 -1 118zM160 423q0 -28 2 -84q91 57 171 80q-40 381 -40 736q0 119 -7 119q-6 0 -36 -101q-90 -398 -90 -750z" />
<glyph unicode="B" horiz-adv-x="587" d="M20 670q0 308 25 589q4 33 10 47q1 0 1 2q0 1 1 2q6 9 7 10q16 19 33 29q23 15 42 26q2 2 4 3q3 1 11.5 6t13.5 7q20 11 39 18l2 1q1 0 3 1q1 1 2 1q2 1 3 1q45 17 87 17q51 0 87 -29l15 -12q43 -37 86 -82l2 -2l9 -9q2 -2 6.5 -7t6.5 -7q13 -16 22.5 -35t14 -39t6.5 -34 t3.5 -30.5t1.5 -19.5q2 -56 1 -101q0 -67 -3 -108l-9 -75q-45 -286 -212 -470l5 2q5 1 15.5 3.5t21.5 4.5q27 5 38 5q29 0 53.5 -36.5t24.5 -58.5q0 -80 -84 -170q-112 -120 -168 -120q-11 0 -23 5q-18 8 -29 14q-96 51 -121 98q-39 73 -49 288q0 13 -0.5 38t-1.5 38v4 q0 10 -1.5 80t-1.5 105zM169 669q0 -158 5 -287q72 58 124 141t78.5 175t37.5 180q9 75 9 153v28q-2 106 -8 168l-2 13q0 16 -12 35t-33 20l-2 1h-2l-3 -1h-2q-5 0 -8 -1q-1 0 -2.5 -0.5t-2.5 -0.5q-72 -13 -156 -77l-1 -11q-7 -86 -11 -171q-9 -176 -9 -365zM183 190 q9 -84 46 -84q18 0 40 15q26 17 50 42t35.5 41t14.5 23q13 33 13 39q0 20 -23 20q-5 0 -11 -1q-23 -4 -60 -22q-39 -20 -73 -47q-20 -15 -24 -19q-3 -2 -6 -5z" />
<glyph unicode="C" horiz-adv-x="557" d="M20 683q0 295 66 510q22 69 50 122v1q50 96 82 106q9 3 18 3h4q14 0 28 -5q7 -2 35 -16l12 -6q96 -50 121 -77t51 -108l9 -33q40 -154 40 -342q0 -177 -34 -320q0 -1 -1 -2l-1 -2q-7 -31 -26 -31q-6 0 -10 1q-56 16 -82 29q-16 8 -10 36v1q30 129 30 289q0 215 -54 365 q-10 26 -15 38v1q-1 0 -1 2q0 1 -1 2l-1 1q-16 38 -22 41q-1 1 -4 1q-7 0 -16 -11l-2 -1q-2 -2 -2 -3v-1q-35 -44 -63 -142q-54 -187 -54 -448q0 -247 50 -428q31 -110 69 -152q8 -9 11 -9l1 -1q7 -5 14 -5q30 0 68.5 66.5t52.5 118.5q11 38 34 38q5 0 17 -6q24 -12 24 -51 q0 -12 -5 -37q-13 -57 -52 -128.5t-64 -82.5q-15 -7 -40 -7q-23 0 -53 8q-50 14 -113 48q-69 38 -115 220q-10 40 -18.5 84t-11.5 66.5t-3 24.5q-13 120 -13 232z" />
<glyph unicode="D" horiz-adv-x="618" d="M20 678q0 346 29 634l3 6q6 9 7 10q16 19 33 29q18 13 41 26q1 1 2.5 2t2.5 1q2 1 11 6t14 7q22 12 38 18l2 1q1 0 3 1q1 1 2 1q2 1 3 1q43 16 87 16q52 0 87 -28q2 -2 6.5 -6t7.5 -6q49 -42 96 -92q31 -33 67 -77q12 -15 21 -41q5 -16 10 -43q6 -31 6 -71q0 -38 -8 -96 q-19 -101 -54 -217q-89 -290 -258 -614q-3 -6 -13.5 -26.5t-16.5 -31.5q-2 -5 -7 -13t-7 -13h-1v-1q-3 -5 -9 -17t-9 -17l-2 -2v-1q-5 -7 -5 -8l-1 -3q-2 -2 -3 -4l-2 -4q-3 -5 -9 -5q-2 0 -14 5l-6 3l-2 1l-2 1q-31 21 -41 28q-5 3 -14.5 10t-13.5 11q-4 3 -12.5 10 t-12.5 10q-2 2 -6.5 5.5t-6.5 5.5l-3 3l-1 1l-8 8l-2 4q-9 18 -13 71q0 6 -1 17.5t-1 17.5q0 1 -0.5 4t-0.5 5q-13 241 -13 457zM168 633q0 -7 0.5 -19t0.5 -19v-6q0 -54 1 -82q0 -5 0.5 -14t0.5 -14q5 -178 7 -207q124 247 192 449q31 92 54 182q42 165 42 269q0 70 -26 99 q-6 7 -12 12t-10.5 8.5t-10 6t-9 4t-9.5 2.5t-8.5 1.5t-9 1t-8.5 0.5q-76 -5 -173 -79q0 -1 -0.5 -5t-0.5 -7q0 -2 -0.5 -5t-0.5 -4t-0.5 -5t-0.5 -5q-1 -3 -1 -10v-10t-1 -10t-1 -11q0 -2 -0.5 -6.5t-0.5 -7.5q-1 -5 -1.5 -14t-0.5 -14q-2 -25 -4 -75q-1 -6 -1.5 -19.5 t-0.5 -19.5v-13q0 -5 -1 -16t-1 -17q-1 -9 -1.5 -28.5t-0.5 -28.5v-22v-1q0 -4 -0.5 -11.5t-0.5 -11.5q0 -8 -0.5 -23.5t-0.5 -23.5v-25q0 -8 -0.5 -25.5t-0.5 -26.5v-17v-8v-10v-36v-23z" />
<glyph unicode="E" horiz-adv-x="546" d="M20 609q0 144 10 292q9 139 23 272q13 112 18 122q11 42 25.5 58.5t59.5 35.5q88 37 169 41q2 1 4 1q70 0 103 -66q2 -5 6.5 -16.5t6.5 -15.5q28 -76 28 -96q0 -11 -7 -13q-9 -4 -13 7q-8 12 -12.5 18t-15 13.5t-26.5 14.5q-7 3 -16.5 4.5t-18.5 1.5t-16.5 -0.5 t-13.5 -0.5l-6 -1q-3 0 -11 -2q-1 0 -3 -0.5t-3 -0.5h-4t-5 -1q-1 0 -3.5 -1t-3.5 -1q-1 -1 -3.5 -1t-3.5 -1q-2 -1 -3.5 -1h-3.5q-8 -2 -11 -3l-4 -2t-4 -1l-3 -1q-1 -1 -4 -1q-1 0 -2 -1t-3 -1q-19 -6 -41 -17q-3 -24 -13 -139v-3q-1 -10 -3.5 -33.5t-3.5 -37.5 q-18 -212 -18 -428q0 -113 4 -217q94 52 169 69l3 1h3q20 0 38 -24q25 -36 38 -66q1 -2 2.5 -6.5t2.5 -6.5q1 -1 1 -3t1 -3q11 -34 0 -33q-1 0 -2 1q-10 5 -22 7q-1 0 -3 1h-6q-46 0 -168 -71q-9 -5 -13 -8l-1 -1q-3 -2 -8 -2q-12 0 -19 13q-4 11 -10 25q1 -8 1 -23t1 -22 q0 -1 0.5 -3.5t0.5 -3.5q0 -10 1 -19.5l2 -19t1 -13.5q4 -39 17 -51q5 -5 16 -5q22 0 69 20q33 14 79 48q1 0 2 1l2 2q10 7 19 7q4 0 8 -2t6 -4l2 -1q40 -37 57 -58q6 -7 6 -15q0 -9 -8 -17l-3 -2q-14 -11 -40 -29l-2 -2q-54 -35 -115 -57l-2 -1q-13 -4 -25 -7q-3 -1 -7 -1 q-25 0 -69 24q-17 8 -21 11q-2 1 -8 5q-66 40 -99 70q-25 23 -36 117v4q0 2 -0.5 6t-0.5 6q-15 195 -15 364z" />
<glyph unicode="F" horiz-adv-x="501" d="M21 733q0 112 1 163q5 232 25 440q4 29 5 38q3 17 36 12q17 -2 42 -8q39 17 91 32q2 0 7 2t7 2t4 1q61 16 108 16q92 0 109 -56q16 -53 22 -83q2 -8 2 -10q1 -3 1 -9q0 -14 -8 -17q-10 -4 -17 3q-2 1 -5 3.5t-5 3.5q-1 0 -2.5 1t-2.5 1q-31 14 -71 14q-50 0 -104 -18 q-42 -14 -81 -33q-1 -3 -1 -10.5v-12.5q-7 -91 -11 -177q-6 -123 -6 -299q0 -158 7 -322q101 66 185 87q1 0 4 1h3q20 0 35 -23q32 -47 49 -84q1 -2 3 -6.5t3 -6.5q6 -15 6 -23t-4 -8t-8 1q-10 5 -22 7h-4h-8q-35 0 -87 -23q-58 -26 -111 -63l-2 -1q-4 -3 -9 -3 q-11 0 -18 13q-4 9 -10 21q2 -49 13 -199v-2l1 -2v-2v-3q0 -2 0.5 -6.5t0.5 -7.5q0 -1 0.5 -2.5t0.5 -2.5v-7q0 -8 2 -26t3 -28q-1 -11 -8 -11q-3 0 -8 2q-1 1 -10 7q-111 77 -121 94q-9 16 -13 71q0 6 -1 17.5t-1 17.5q0 1 -0.5 4t-0.5 4q-16 255 -16 516z" />
<glyph unicode="G" horiz-adv-x="604" d="M20 677q0 302 69 520q24 76 50 122v1q50 96 82 105q12 4 19 4h3q13 0 29 -6q25 -10 35 -15l2 -1q2 -1 5.5 -2.5t4.5 -2.5q94 -49 121 -78q24 -25 50 -108q2 -6 5 -17.5t4 -16.5q39 -148 39 -335q0 -159 -31 -305l-1 -2v-2q-7 -31 -27 -31q-2 0 -10 2q-54 15 -81 29 q-14 8 -11 33v3l1 2q26 125 26 272q0 209 -53 359q-10 26 -15 38v1l-1 2q-1 1 -1 2v1q-16 37 -23 41q-1 1 -4 1q-6 0 -16 -10l-1 -2q-2 -2 -2 -3l-1 -1q-35 -44 -64 -142q-56 -191 -56 -458q0 -243 48 -420q28 -101 58 -137q12 -15 24 -15q4 0 11.5 3.5t23 17t30.5 35t33 63 t31 95.5q-7 -2 -51.5 -23.5t-60.5 -31.5q-10 -6 -17 -6q-5 0 -9.5 2.5t-5.5 5.5l-2 2l-45 74q-7 12 -7 16q0 9 16 19q19 13 131 66q101 48 144 48q17 0 24 -7q12 -10 21.5 -21.5t13.5 -18.5l3 -6q3 -5 3 -19q0 -8 -1 -20q0 -1 -1 -4l-1 -6q-12 -85 -40 -159t-59 -119 t-56.5 -71t-40.5 -33t-40 -7q-23 0 -53 8q-49 13 -113 48q-67 37 -114 222q-10 40 -18.5 84t-11.5 66.5t-3 24.5q-12 108 -12 224z" />
<glyph unicode="H" horiz-adv-x="589" d="M20 729q0 339 28 612q1 6 3 23.5t3.5 32.5t2.5 20q3 19 13 19q4 0 9 -4q14 -12 57 -55t49 -58q4 -11 4 -39q0 -11 -1 -26v-3q-2 -24 -3 -39q-7 -91 -11 -177q-6 -126 -6 -308q0 -209 11 -425q110 73 193 92l3 1q11 0 13 -1q-7 140 -7 285q0 350 38 656q0 1 0.5 2t0.5 2v4 q0 1 0.5 2.5t0.5 2.5q1 2 1.5 6.5t0.5 6.5q1 10 7 48q3 14 10.5 17t11.5 -2q14 -11 57 -55t48 -59q3 -8 3 -26q0 -6 -0.5 -12.5t-1.5 -15t-1 -13.5q-24 -231 -28 -483v-87q0 -255 20 -494q6 -51 11 -90.5t7.5 -54.5t2.5 -23q-1 -10 -11 -10q-8 0 -20 8l-9 7q-10 6 -24 16 t-29 21t-27.5 21t-16.5 16q-27 35 -32 98q-2 19 -4 59q-73 -17 -167 -82l-1 -1q-5 -3 -9 -3q-12 0 -19 13q-8 16 -17 36q2 -28 8 -109v-4l1 -2v-3q0 -2 0.5 -6.5t0.5 -7.5q0 -2 0.5 -6t0.5 -6q0 -9 1.5 -26.5t2.5 -27.5q-1 -11 -8 -11q-3 0 -7 2l-2 1q-1 1 -3.5 2t-5.5 3 q-107 71 -120 95q-9 18 -13 71q0 6 -1 17.5t-2 17.5v9q-17 268 -17 510z" />
<glyph unicode="I" horiz-adv-x="215" d="M20 673q0 351 33 663q1 5 3 23.5t3.5 33.5t2.5 20q3 17 14 17q6 0 8 -2q14 -12 57 -55t48 -58q3 -11 3 -34q0 -21 -1 -31v-3q-2 -24 -3 -37q-10 -124 -12 -179q-9 -175 -9 -361q0 -285 20 -569q0 -2 1 -3v-2v-2v-3q0 -2 0.5 -6.5t0.5 -7.5q0 -2 0.5 -6t0.5 -6 q0 -8 1.5 -26t2.5 -27q-1 -12 -8 -12q-3 0 -8 2q-1 1 -10 7q-109 75 -119 95q-9 18 -13 70q0 6 -0.5 18t-1.5 18q0 2 -0.5 5t-0.5 4q-13 240 -13 454z" />
<glyph unicode="J" horiz-adv-x="481" d="M20 509q0 165 54 314l6 14q24 69 40 69q10 0 40.5 -37.5t44.5 -67.5q6 -15 6 -18l-1 -2v-1v-1q-1 -1 -1 -2q-1 -2 -3.5 -9t-3.5 -11l-3 -9q-1 -2 -1 -4v-2q-1 -2 -1 -3t-1 -1l-1 -2q-1 -2 -1 -5v-1q-31 -108 -31 -219q0 -89 19 -172l2 -7q30 -138 55 -153q4 -2 6 -2 q5 0 10 7q19 27 41 161q2 10 2 13q2 10 3 16q1 4 1 12v2q1 1 1 2v4l1 2q13 103 13 215q0 150 -24 322t-45.5 266t-43.5 173l-1 1q-2 8 -5 18.5t-4 13.5l-1 2v2q0 1 -0.5 2.5t-0.5 3.5q-2 11 1 14q1 1 3 1t24 -8q95 -39 126 -82q22 -31 47 -140l1 -6q1 -5 3 -14t3.5 -16.5 t2.5 -14.5l2 -11q23 -122 33 -203q22 -167 22 -322q0 -243 -56 -432q-1 -5 -4.5 -15.5t-5.5 -15.5q0 -1 -1 -3t-1 -3q-4 -10 -6 -16q-42 -97 -79 -121q-11 -7 -20 -7t-56.5 20.5t-69.5 34.5l-1 1q-27 17 -63 90l-5 12q-72 171 -72 351z" />
<glyph unicode="K" horiz-adv-x="600" d="M20 675q0 351 33 666q1 5 3 23t3.5 32.5t2.5 19.5q2 13 12 14h3q7 0 11 -5q16 -13 56 -52.5t45 -54.5q4 -11 4 -39q0 -11 -1 -26l-1 -2q-2 -20 -3 -40q-9 -121 -12 -177q-8 -155 -8 -362q0 -166 5 -301q62 66 110 159q151 291 151 774v49v3q0 34 -1 51v1l-1 4 q-1 14 10 18q5 2 9 2t7 -3q7 -4 48.5 -41t52.5 -50q20 -23 21 -82q0 -6 -0.5 -18t-0.5 -18q-5 -191 -36.5 -356t-71.5 -269.5t-92.5 -189.5t-89.5 -125t-73 -68l9 -9q5 -5 13 -13.5t11 -11.5l3 -3l5 -5q2 -2 6.5 -5.5t6.5 -5.5q16 -15 25 -22t22.5 -13.5t26.5 -6.5 q10 0 20 3q31 9 44.5 39t13.5 60q0 25 -12 67q-8 34 -8 41q0 10 5 15q9 7 15 7q11 0 26 -17q1 -1 3 -4q16 -18 35.5 -65t19.5 -108q0 -10 -2 -34v-3q-2 -14 -4 -23q-5 -18 -11 -28q-36 -65 -103 -65q-40 0 -81 33l-119 125l-2 2q2 -40 4 -62v-4v-2l1 -3q0 -2 0.5 -6t0.5 -7 v-13q0 -9 2 -26.5t3 -27.5q-1 -11 -8 -11q-3 0 -8 2l-1 1l-5 2.5t-5 3.5q-109 75 -119 95q-9 18 -13 71q0 6 -1 18t-1 18q0 1 -0.5 4t-0.5 4q-13 240 -13 456z" />
<glyph unicode="L" horiz-adv-x="423" d="M21 461q-1 105 -1 200q0 430 22 671h3h-3v2q2 9 3 38.5t2 33.5q4 20 18 20q5 0 10 -3q14 -11 61 -54.5t52 -58.5q3 -8 3 -26q0 -110 -10 -254q-6 -93 -6 -577q0 -117 9 -326q2 -24 13 -34q11 -9 19 -9q6 0 14 3t45 23q6 3 16 9t14 8l5 2l15 9q21 11 31 15q8 2 12 2 q15 -1 25 -12t10 -19v-2q0 -45 -74 -90l-1 -1q-1 0 -3 -1.5t-4 -2.5q-1 -1 -2 -1t-2 -1q-41 -20 -71 -24q-2 0 -5.5 -0.5t-4.5 -0.5q-6 0 -11 1t-7 2l-3 1q-48 18 -110 61q-59 42 -68 60q-8 14 -11 70v1l-2 43q-1 46 -2 131t-1 91z" />
<glyph unicode="M" horiz-adv-x="657" d="M21 1015.5q0 -80.5 1 -168.5t1 -139q0 -202 17 -584q1 -29 17.5 -48t51.5 -43q51 -33 63 -33q22 0 15 49q-4 30 -8 94t-7.5 140t-3.5 85v4q-8 339 -9 460q1 0 26 -124.5t51.5 -254.5t33.5 -140q13 -20 57 -30q35 -9 47 -9q6 0 9.5 2t5 8t2 13t2 22t4.5 29q4 48 14 115 t21.5 128t22.5 115t18 87.5t7 34.5q-7 -99 -7 -264v-28q3 -399 23 -455l1 -3q1 -3 2 -5l3 -6t6 -8t9.5 -9t14 -11t18.5 -12q14 -8 29 -14t23 -8l8 -2q6 -3 12 -3q5 0 8 3q4 4 4 17q0 3 -6 61q-17 179 -17 440q0 291 21 685q1 22 3 52t2 43t-3 28t-11 24q-64 73 -106 79h-3 q-16 0 -26 -23q-40 -86 -156 -651q0 -2 -2.5 -22t-5 -39t-2.5 -18q0 -1 -4.5 21.5t-9.5 46.5t-5 26q-26 132 -60 311q-37 187 -46 225t-24 52q-22 22 -60 46.5t-52 24.5t-19.5 -11.5t-9 -54t-7.5 -124.5q-1 -36 -2 -57q-2 -89 -2 -169.5z" />
<glyph unicode="N" horiz-adv-x="616" d="M20 792q0 264 20 508q1 13 3 37l6 57q0 3 0.5 7t1 7t0.5 4q1 14 9 18q3 1 6 1q4 0 7 -3q3 -1 26 -23q46 -42 72 -74h1q16 -16 26 -54q0 -1 0.5 -2t0.5 -2v-2q58 -240 131 -479q37 -121 77 -233q0 15 -0.5 43.5t-0.5 42.5q0 371 43 689v3q1 1 1 3v2v5q1 2 1.5 6.5t0.5 6.5 q2 10 5 27.5t3 20.5q3 14 10.5 17t11.5 -2q13 -11 56.5 -55.5t48.5 -59.5q3 -8 3 -25q0 -21 -3 -42q-26 -228 -31 -483q-1 -38 -1 -119q0 -226 16 -433q1 -5 1.5 -14t0.5 -14q0 -1 0.5 -3.5t0.5 -3.5v-3v-1q1 -1 1 -2q1 -10 7.5 -52.5t9.5 -68.5q4 -22 4 -39q0 -7 -5 -7 q-15 0 -55 24t-58 42l-2 2l-2 2l-2 2q-1 2 -4 5t-4 5q0 1 -4.5 5.5t-6.5 8.5q-1 0 -1 1t-1 2q-1 0 -1 2q0 1 -1 2q-6 11 -19 36.5t-27.5 55.5t-18.5 39l-2 5l-1 2l-3 6q-7 14 -21 44q-84 181 -169 461q-3 10 -9.5 32t-9.5 32v-38q0 -317 31 -677v-4v-2v-3q0 -2 1 -6t1 -7 q0 -2 0.5 -6t0.5 -6q1 -9 2.5 -27.5t2.5 -27.5q-1 -16 -16 -9l-2 1q-1 1 -4 2.5t-5 3.5q-111 74 -122 94q-10 19 -14 70q-1 6 -2 17.5t-1 17.5v9q-22 298 -22 576z" />
<glyph unicode="O" horiz-adv-x="591" d="M20 685q0 297 66 512q25 77 50 124q50 96 81 106q11 3 19 3h3q14 0 28 -5q19 -7 30 -13l7 -4l6 -3l4 -2q92 -48 118 -70q1 -1 4.5 -3.5t5 -4.5t5.5 -5.5t6.5 -7.5t6.5 -10t8 -13.5t9 -17.5t10 -23t11 -28q1 -2 3.5 -10t3.5 -13q0 -1 2 -5q64 -214 64 -507 q0 -121 -12 -233q0 -11 -7.5 -59.5t-34 -140t-65.5 -159.5q-40 -74 -67 -86q-15 -7 -40 -7t-50 7l-2 1q-50 14 -113 48q-22 12 -39 37q-34 46 -61 137.5t-37 151.5t-10 70q-13 122 -13 233zM166 687q0 -90 8 -183q12 -141 42 -247q30 -110 69 -152q9 -9 11 -10q5 2 11 10 q37 40 68 152q31 113 42 244v2v1q8 93 8 183q0 262 -54 449q-10 37 -22 66q-1 1 -1 3t-1 3q-8 23 -15 38l-1 1q-1 1 -1 2v2l-1 1q-16 37 -23 41q-1 1 -4 1t-5 -1t-10 -9l-2 -2q-2 -2 -2 -3q-22 -29 -41 -77q-12 -29 -22 -66q-54 -187 -54 -449z" />
<glyph unicode="P" horiz-adv-x="589" d="M18 611q-1 71 0 132q0 97 2 171q4 118 11 210t13.5 133.5t10.5 51.5q1 0 1 2q0 1 1 2q6 9 7 10q9 11 33 30q19 12 41 25q1 1 5 3q3 1 11.5 6t13.5 7q20 10 39 18l2 1q1 0 3 1q1 1 2 1q2 1 3 1q48 18 87 18q50 0 86 -29q3 -2 8 -6.5t7 -6.5q48 -42 86 -81l2 -2q2 -3 8 -9 l6.5 -6.5t6.5 -7.5q51 -62 55 -158v-7q1 -29 1 -57q0 -77 -8 -151q-45 -437 -312 -679h-1q-5 -4 -7 -6q-12 -8 -23 -6q-2 0 -8.5 2.5t-10.5 3.5q-3 1 -10 3t-10 3q1 -26 4.5 -75.5t4.5 -60.5v-3v-3v-2q0 -2 0.5 -6.5t0.5 -7.5q0 -2 0.5 -6t0.5 -6q0 -9 2 -27t3 -28 q0 -9 -6 -11q-2 -1 -5 0q-3 0 -5 2l-2 1q-1 1 -4 2.5t-5 3.5q-108 72 -120 96q-9 18 -13 71q0 6 -1 18t-1 18q0 2 -0.5 4t-0.5 4q-13 208 -15 393zM174 366q77 77 130.5 179.5t77.5 194.5q22 93 32 196q8 85 8 145v23q-2 66 -8 127l-2 13q0 6 -2 14q-7 39 -42 41h-5h-5 q-5 0 -8 -1q-1 0 -2.5 -0.5t-2.5 -0.5q-72 -13 -156 -77l-1 -12q-7 -87 -11 -170q-9 -182 -8 -368q-1 -151 5 -304zM242 228l2 1z" />
<glyph unicode="Q" horiz-adv-x="585" d="M20 684q0 300 65 512q20 68 50 123q50 96 80 106q9 3 19 3h3q14 0 28 -5q19 -7 30 -13l7 -3q1 -1 2.5 -2t2.5 -1l4 -2q92 -48 118 -70q1 0 4.5 -3.5t5 -4.5t5.5 -5t6 -8t6.5 -10t8 -13.5t8.5 -17.5t10 -23t11 -28q1 -2 3.5 -10t3.5 -13q0 -3 1 -5q64 -214 64 -507 q0 -120 -12 -232q0 -10 -10 -70t-37 -151.5t-61 -138.5q-41 -75 -64 -85q-18 -8 -40 -8q-2 0 -6.5 0.5t-6.5 0.5q8 -18 11 -26q26 -66 36 -87q6 -11 10 -19q1 -2 10 -17q11 -14 27 -22q10 -4 23 -6t25.5 -3t15.5 -2q4 0 6 -1q9 -4 9 -14q0 -8 -7 -13l-2 -1q-32 -14 -86 -14 q-51 0 -84 18q-16 8 -31 23t-24.5 29t-20 34.5t-15 32t-11.5 29.5t-7 19q-26 66 -69 101q-36 29 -109 29q-6 0 -10.5 4.5t-4.5 10.5t5 11q27 27 77 36h4q-23 53 -41.5 129t-25.5 120.5t-7 50.5q-13 120 -13 232zM165 686q0 -90 8 -183q12 -138 41 -247q31 -112 68 -152 q7 -7 11 -9q6 3 11 9q37 40 68 152q31 113 42 244v2v1q8 93 8 183q0 256 -54 448q-11 40 -22 67q0 1 -1 3t-1 3q-8 23 -15 38l-1 1v2q0 2 -1 2l-1 1q-16 37 -22 41q-1 1 -4 1q-1 0 -5 -2q-2 -1 -10 -9l-2 -1q-2 -2 -2 -3l-1 -1q-21 -27 -40 -76q-11 -27 -22 -67 q-53 -189 -53 -448z" />
<glyph unicode="R" horiz-adv-x="620" d="M20 673q0 269 19 512v6q3 44 6 70q4 35 12 51q6 9 7 10q9 11 32 28v1q12 9 41 25q18 10 30 16q22 12 38 18l2 1q1 0 3 1q1 1 2 1q2 1 3 1q43 16 86 16q20 0 40.5 -7t36 -15t34.5 -23t28 -23.5t25 -24.5l18 -18q38 -36 59 -66q20 -29 32 -75q10 -39 11 -89q0 -9 -1 -17 q-2 -60 -15 -150l-1 -2q-56 -271 -166 -460q-84 -144 -181 -254q5 -5 12.5 -13t10.5 -11q1 -1 4 -3q1 -1 2 -3l2 -2q64 -53 104 -53q5 0 11 1q26 5 42.5 15.5t22.5 27.5t7.5 27t1.5 27q0 24 -12 66q-8 34 -8 41q0 9 6 15q9 7 15 7q10 0 25 -17l3 -3q11 -12 23 -30t27 -59.5 t15 -83.5q0 -10 -2 -34v-3q-2 -16 -4 -24q-5 -18 -11 -28q-33 -61 -105 -64h-2q-29 0 -64 23q-36 24 -163 127q2 -43 3 -52l1 -2v-2v-2v-3q0 -2 0.5 -6.5t0.5 -7.5q0 -2 0.5 -6t0.5 -6q0 -9 1.5 -26.5t2.5 -27.5q-1 -11 -9 -11q-3 0 -7 2q-1 1 -10 7q-109 75 -119 95 q-9 18 -13 71q0 6 -1 17.5t-1 17.5q0 2 -0.5 5t-0.5 4q-13 240 -13 454zM167 670q0 -160 5 -290q60 80 106 158q155 265 171 592v4v5q0 3 1 21q1 12 1 22q-1 6 -1 10q0 14 -1.5 32t-7 32t-14.5 21q-21 17 -52 17q-7 0 -17 -2q-44 -6 -88.5 -25t-80.5 -47q0 -1 -0.5 -5 t-0.5 -7q-10 -122 -12 -176q-9 -175 -9 -362z" />
<glyph unicode="S" horiz-adv-x="546" d="M20 820q0 22 4 70q31 304 233 503l18 18q26 21 51 21l20 -5q50 -26 93 -70l3 -3q23 -24 40 -55q36 -66 36 -364l-1 -25q-8 -159 -24 -335q-2 -17 -16 -17q-20 0 -79 40q-2 2 -6.5 5t-6.5 4q-34 23 -34 53v4v4q21 248 21 433v62v7v2q0 17 -1 33q-3 51 -14 56q-1 1 -4 1 q-21 0 -91 -102q-72 -127 -89 -285q0 -1 -1.5 -14.5t-1.5 -20.5v-9v-11q0 -29 4 -66v-1q1 -1 1 -2q24 -198 134 -334q24 -29 55 -59q102 -89 132 -137q31 -49 31 -92q0 -34 -18 -61q-44 -68 -164 -68h-4q-6 0 -14 0.5t-10 0.5l-5 1q-21 3 -46 9l-2 1h-2q-100 24 -141 60h-1 q-7 6 -13 16q-27 51 -27 123q0 3 3 39q3 21 13 21q4 0 9 -4q1 -1 3 -2.5t3 -2.5q61 -58 126 -88l3 -1l3 -1q47 -21 85 -21q20 0 33 7q12 7 15 12q6 9 6 20q0 37 -63 91l-2 1l-3 3q-71 61 -108 100q-20 21 -52 61q-55 71 -91 151q-14 34 -19 52q-24 81 -24 171z" />
<glyph unicode="T" horiz-adv-x="559" d="M52 1353q1 4 3.5 7t8 5.5t9.5 4t13 4.5t13 4h1l2 1q1 1 3 1t3 1q1 0 8.5 2.5l13.5 4.5l4 1q3 1 8 3t7 2q1 0 3.5 0.5t3.5 1.5l5 1q34 9 65.5 15.5t52 10t42.5 5.5t31 2h10.5h14.5q16 0 17 -1q24 -1 38 -3t26 -11t17 -25q1 -2 1 -5q23 -94 23 -98q0 -6 -2.5 -8.5t-7.5 -2 t-10.5 2.5t-13.5 4.5t-13 3.5q-34 7 -65 7q-20 0 -40 -3q0 -3 -0.5 -14t-0.5 -13v-3q-2 -20 -3 -40q-9 -121 -12 -178q-9 -176 -9 -366q0 -272 21 -576v-4v-2v-3q0 -2 0.5 -6.5t0.5 -7.5q0 -2 0.5 -6t0.5 -6q0 -9 1.5 -27t2.5 -28q-1 -9 -6 -11q-2 -1 -4 0q-3 0 -5 2l-2 1 q-1 1 -4 2.5t-5 3.5q-109 72 -121 96q-9 18 -13 72q-1 6 -1 18t-1 18v8q-13 243 -13 459q0 250 25 582q-61 -13 -95 -28q-18 -7 -26 14q-27 70 -27 97q0 5 1 8z" />
<glyph unicode="U" horiz-adv-x="575" d="M21 699q0 -42 1 -65q5 -94 14 -174t19 -131t23 -94.5t21.5 -63.5t18 -40t10.5 -22q13 -33 93 -74q1 -1 2 -1t2 -1l6 -3q25 -13 50 -23q2 -1 5.5 -2t5.5 -1q18 -4 24 -4q25 0 47.5 15t32.5 29l9 15q61 98 114 318v3l1 1l2 11v1q32 173 32 396q0 169 -17 337l-1 3v3l-3 34 q-1 5 -2.5 14.5t-1.5 13.5v4q-13 99 -29 119q-19 23 -54.5 51.5t-63.5 40.5q-4 2 -12 4t-10 2q-13 0 -15 -14v-10q1 -2 1.5 -7t0.5 -8l2 -12q25 -144 38 -286q9 -97 12 -210q1 -28 1 -83q0 -172 -21 -313v-4q0 -1 -0.5 -3t-0.5 -4q0 -1 -0.5 -2.5t-0.5 -2.5l-1 -2v-3 q-1 -3 -1 -7q-33 -208 -74 -280q-12 -21 -23 -28q-8 -4 -11 -4q-17 0 -32 33q-10 21 -18 60q-11 49 -19.5 120.5t-11.5 118.5l-3 47q-8 95 -8 212q0 141 11 276q11 124 24 217q4 34 9 73q1 9 1 17q0 30 -16 54q-22 30 -69 65q-14 10 -25 10q-17 0 -24 -21l-1 -4l-8 -47 q0 -1 -0.5 -2t-0.5 -2q-55 -315 -55 -617v-41v-2zM77 1363l8 47q-1 -3 -8 -47zM343 1401q0 -3 1 -9q0 6 1 9h-2z" />
<glyph unicode="V" horiz-adv-x="583" d="M20 960q0 -331 63 -656q4 -18 22 -90v-1q12 -48 16 -62q0 -1 0.5 -2t0.5 -2q27 -89 60 -126q12 -11 14 -13q11 -8 29 -8q42 0 111 48q2 2 7 5.5t8 5.5q47 35 53 47q3 4 7 16q9 29 15 149q20 406 76 784q15 98 30 178q0 1 0.5 2t0.5 2q1 1 1 5v5q1 5 3.5 18.5t3.5 20.5 q11 64 11 65l5.5 38.5t5.5 37.5v4q1 12 -5 16q-3 2 -7 2q-2 0 -5 -1q-7 -2 -57 -31q-67 -40 -76 -52q-9 -13 -19 -63v-2l-1 -2q-69 -361 -100 -788q0 -2 -0.5 -5t-0.5 -4v-4l-9 -225q0 -15 0.5 -41t0.5 -36v-18q0 -37 -6 -43q-5 0 -14 20q-6 13 -9 22q-1 2 -1 6l-1 3 q1 1 0 3q-2 4 -2 6q-1 1 -1 3.5t-1 4.5q0 1 -0.5 2.5t-0.5 2.5t-0.5 2.5t-0.5 2.5q-1 2 -1.5 5t-0.5 5q-8 34 -12 53q-72 341 -72 691q0 178 20 351v1v3q5 42 6 47q4 24 7 34q4 14 1 22q0 1 -0.5 2.5t-1.5 2.5q-5 6 -20 3l-9 -3q-18 -7 -56.5 -25t-42.5 -22q-18 -15 -26 -78 q-1 -7 -3 -23v-6q-2 -24 -5.5 -71t-4.5 -59v-3l-1 -2v-5q-5 -100 -5 -175z" />
<glyph unicode="W" horiz-adv-x="653" d="M20 853q0 -333 16 -700v-2q0 -1 0.5 -5t0.5 -5q4 -37 45 -82q3 -3 9.5 -9t10.5 -10t10 -9.5t10.5 -9t10 -8t9.5 -6.5t7.5 -3.5t6 -1.5t4.5 2q8 3 21 44t34.5 124.5t31.5 119.5q29 101 48 188l6 27l10 36q0 7 7 7q5 0 9 -11q2 -6 13 -50q20 -76 60.5 -202t58.5 -164 q1 -3 8 -18.5t11.5 -25.5t11.5 -20.5t13 -13.5q12 -7 58 -27t52 -20h1q8 0 12 4q6 6 6 24v9q0 6 -2 24q-3 34 -7.5 308t-4.5 339q0 490 8 569q4 23 -31.5 72t-66.5 74q-14 9 -20 9h-2q-4 -4 -9 -25l-3 -15l-7 -73q-8 -115 -8 -272q1 -10 1 -20q0 -170 3.5 -373.5t3.5 -209.5 q-11 30 -33 101q-21 71 -38.5 146t-24.5 112.5t-7 40.5l-1 7q0 2 -1 5v2q-9 23 -63 41q-1 0 -3 1q-18 6 -22 2q-10 0 -22 -29q-20 -47 -89 -323l-1 -1l-2 -12q-1 -3 -9 -31t-9 -31l-7 -31v32v45q1 85 3 207q4 158 3 206q0 38 -1 110q-1 48 -1 85q1 18 1 34q0 47 3 87l2 19 q2 25 -15.5 54.5t-62.5 76.5q-23 23 -36 23q-12 0 -16 -20l-1 -3v-7.5t-1 -8.5l-2 -19q-11 -105 -11 -510z" />
<glyph unicode="X" horiz-adv-x="626" d="M24 1191l2 132q-1 1 -1 3l1 1v2q3 28 37 50q70 43 94 43q6 0 9 -3q2 -2 2 -9v-17q-5 -97 -5 -193q0 -179 17 -344q25 -234 45 -324q116 396 222 797q0 1 1 3q3 12 18.5 24.5t55.5 38.5q7 4 19.5 12.5t18.5 12t15 7t17 3.5q6 0 9 -3q4 -4 4 -14q0 -11 -3 -34 q-3 -19 -16 -71v-2l-10 -39q-124 -479 -279 -914q49 -111 120 -189q16 -18 10 -45q-22 -111 -40 -115q-11 -2 -24.5 11.5t-51.5 60.5q-48 63 -82 127q-8 -20 -15.5 -40.5t-13 -35t-12.5 -31.5q-14 -34 -23 -43.5t-45 -26.5q-54 -26 -90 -26q-14 0 -14 14q0 11 9 31 q1 3 24 50q69 179 93 247q-67 178 -101 501q-17 159 -17 348z" />
<glyph unicode="Y" horiz-adv-x="669" d="M34 858q-2 44 -2 89q0 129 17 271q3 34 13 75q4 14 7.5 24.5t8 18.5t6.5 12.5t7.5 10t7 6.5l9 6t8.5 6q57 37 94 53q1 1 5 1q8 0 14 -5t4 -16l-1 -5q-3 -16 -9 -50v-2q-46 -279 -46 -444q0 -25 1 -47q10 -195 61 -344q15 -42 30 -75l247 943l2 5v3l2 5l2 9l1 4l2 9 q3 12 11 14q2 1 4 1q4 0 7 -4q9 -7 47 -49.5t44 -56.5q3 -6 3 -18q0 -16 -7 -47l-1 -2l-195 -742l-2 -10l-119 -449l-6 -22l-1 -1v-2q-3 -12 -8 -27q-4 -8 -9 -8q-4 0 -9 5l-1 1q-1 2 -2.5 4t-3.5 4q-82 104 -84 120q0 1 -0.5 2.5t-0.5 2.5q0 7 10 51l15 58 q-164 223 -183 612z" />
<glyph unicode="Z" horiz-adv-x="643" d="M22 179q0 14 4 27q9 38 58 150v1l380 792q0 1 1 3l1 1v2t1 1l1 2q3 6 4 9q21 44 21 68q0 39 -67 39q-6 0 -28 -2q-106 -16 -185 -16q-17 0 -45 2v-96q0 -217 8 -434v-2v-5v-2v-4v-7v-8v-6v-8l3 -60v-2q-1 -10 -5.5 -12t-8.5 2l-8 8q-88 84 -97 111q-8 21 -10 80 q0 7 -0.5 21t-0.5 20v10q-3 160 -3 306v106q0 43 2 121v11v11q0 11 9 11q7 0 20 -7l1 -1l3 -1h1q3 -1 11 -3q37 -9 77 -11q13 -1 44 -1q76 0 173 15q1 0 4 0.5t4 0.5h4q38 0 79 -50q2 -2 4 -5t4 -5q23 -29 48 -65q44 -67 63 -112q6 -13 6 -37q0 -47 -32 -113q-1 -1 -2.5 -5 t-2.5 -6l-337 -703q-67 -153 -67 -168q0 -8 10 -8q4 0 16 3q1 0 4 1l3 1q134 42 257 42q16 0 31 -1q3 0 9 -0.5t9 -0.5q45 -4 56 -18q12 -15 44 -91q19 -45 19 -51q0 -1 0.5 -4t0.5 -6v-6t-2 -5t-5 -2q-5 0 -12 4q-38 21 -85 27q-10 2 -15 2q-2 0 -5 0.5t-4 0.5h-8 q-2 0 -6 0.5t-6 0.5h-4h-12q-99 0 -205 -31q-1 0 -3 -0.5t-3 -1.5q-21 -7 -39 -7q-16 0 -27 8q-20 14 -70 61q-2 2 -6.5 6t-6.5 6q-21 19 -48 46q-27 29 -27 50z" />
<glyph unicode="a" />
<glyph unicode="b" />
<glyph unicode="c" />
<glyph unicode="d" />
<glyph unicode="e" />
<glyph unicode="f" />
<glyph unicode="g" />
<glyph unicode="h" />
<glyph unicode="i" />
<glyph unicode="j" />
<glyph unicode="k" />
<glyph unicode="l" />
<glyph unicode="m" />
<glyph unicode="n" />
<glyph unicode="o" />
<glyph unicode="p" />
<glyph unicode="q" />
<glyph unicode="r" />
<glyph unicode="s" />
<glyph unicode="t" />
<glyph unicode="u" />
<glyph unicode="v" />
<glyph unicode="w" />
<glyph unicode="x" />
<glyph unicode="y" />
<glyph unicode="z" />
<glyph unicode="&#xad;" horiz-adv-x="466" d="M20.5 580q2.5 -8 5.5 -10.5t7 -2.5h226v1h76q13 0 35 18q1 1 3 2.5t3 2.5q46 42 66 93q15 37 -7 37h-58h-1h-243q-13 0 -35 -18q-1 -1 -3 -2.5t-3 -2.5q-17 -16 -37 -43t-29 -50q-8 -17 -5.5 -25z" />
<glyph unicode="&#x2000;" horiz-adv-x="771" />
<glyph unicode="&#x2001;" horiz-adv-x="1542" />
<glyph unicode="&#x2002;" horiz-adv-x="771" />
<glyph unicode="&#x2003;" horiz-adv-x="1542" />
<glyph unicode="&#x2004;" horiz-adv-x="514" />
<glyph unicode="&#x2005;" horiz-adv-x="385" />
<glyph unicode="&#x2006;" horiz-adv-x="257" />
<glyph unicode="&#x2007;" horiz-adv-x="257" />
<glyph unicode="&#x2008;" horiz-adv-x="192" />
<glyph unicode="&#x2009;" horiz-adv-x="308" />
<glyph unicode="&#x200a;" horiz-adv-x="85" />
<glyph unicode="&#x2010;" horiz-adv-x="466" d="M20.5 580q2.5 -8 5.5 -10.5t7 -2.5h226v1h76q13 0 35 18q1 1 3 2.5t3 2.5q46 42 66 93q15 37 -7 37h-58h-1h-243q-13 0 -35 -18q-1 -1 -3 -2.5t-3 -2.5q-17 -16 -37 -43t-29 -50q-8 -17 -5.5 -25z" />
<glyph unicode="&#x2011;" horiz-adv-x="466" d="M20.5 580q2.5 -8 5.5 -10.5t7 -2.5h226v1h76q13 0 35 18q1 1 3 2.5t3 2.5q46 42 66 93q15 37 -7 37h-58h-1h-243q-13 0 -35 -18q-1 -1 -3 -2.5t-3 -2.5q-17 -16 -37 -43t-29 -50q-8 -17 -5.5 -25z" />
<glyph unicode="&#x2012;" horiz-adv-x="466" d="M20.5 580q2.5 -8 5.5 -10.5t7 -2.5h226v1h76q13 0 35 18q1 1 3 2.5t3 2.5q46 42 66 93q15 37 -7 37h-58h-1h-243q-13 0 -35 -18q-1 -1 -3 -2.5t-3 -2.5q-17 -16 -37 -43t-29 -50q-8 -17 -5.5 -25z" />
<glyph unicode="&#x2013;" horiz-adv-x="466" d="M20.5 580q2.5 -8 5.5 -10.5t7 -2.5h226v1h76q13 0 35 18q1 1 3 2.5t3 2.5q46 42 66 93q15 37 -7 37h-58h-1h-243q-13 0 -35 -18q-1 -1 -3 -2.5t-3 -2.5q-17 -16 -37 -43t-29 -50q-8 -17 -5.5 -25z" />
<glyph unicode="&#x2014;" horiz-adv-x="1009" d="M20.5 580q-2.5 8 5.5 25q9 23 29 50t37 43q1 1 3 2.5t3 2.5q10 8 18.5 12.5t12.5 4.5l4 1h243h1h58q2 0 4 -1l6 1h453h1h58q22 0 7 -37q-20 -51 -66 -93q-1 -1 -3 -2.5t-3 -2.5q-10 -8 -18.5 -12.5t-12.5 -5.5h-4h-76v-1h-437q-3 0 -5 1h-4h-76v-1h-226q-4 0 -7 2.5 t-5.5 10.5z" />
<glyph unicode="&#x202f;" horiz-adv-x="308" />
<glyph unicode="&#x205f;" horiz-adv-x="385" />
<glyph unicode="&#x25fc;" horiz-adv-x="1024" d="M0 0z" />
</font>
</defs>
</svg>
